<?xml version="1.0" standalone="no"?>
<!DOCTYPE svg PUBLIC "-//W3C//DTD SVG 20010904//EN"
 "http://www.w3.org/TR/2001/REC-SVG-20010904/DTD/svg10.dtd">
<svg version="1.0" xmlns="http://www.w3.org/2000/svg"
 width="260.000000pt" height="260.000000pt" viewBox="0 0 260.000000 260.000000"
 preserveAspectRatio="xMidYMid meet">
<metadata>
Created by potrace 1.11, written by Peter Selinger 2001-2013
</metadata>
<g transform="translate(0.000000,260.000000) scale(0.100000,-0.100000)"
fill="#000000" stroke="none">
<path d="M742 2418 c-7 -7 -12 -17 -12 -24 0 -6 -7 -17 -15 -24 -8 -7 -13 -16
-10 -20 3 -5 1 -11 -5 -15 -5 -3 -10 -17 -10 -31 0 -14 -6 -27 -12 -29 -9 -4
-12 -23 -10 -61 2 -32 -1 -61 -7 -67 -16 -16 -14 -66 3 -63 34 5 45 27 42 86
-2 41 1 61 10 64 8 3 12 18 10 40 -1 24 3 37 12 41 8 3 12 8 8 12 -3 3 1 15
11 25 9 10 13 18 9 18 -3 0 0 10 9 23 21 33 -5 53 -33 25z"/>
<path d="M1007 2372 c-12 -13 -20 -27 -18 -30 8 -14 43 -34 48 -28 4 3 17 -1
30 -9 13 -9 28 -13 33 -10 5 3 26 -10 46 -29 21 -19 40 -33 44 -31 8 5 50 -46
47 -56 -1 -3 12 -18 29 -32 20 -17 31 -36 32 -54 0 -25 -3 -28 -35 -29 -19 0
-38 -5 -41 -10 -4 -5 -49 -9 -99 -8 -73 0 -93 -3 -93 -14 0 -25 31 -46 67 -44
22 2 32 -1 28 -8 -4 -6 12 -10 43 -10 65 0 73 -19 26 -60 -19 -16 -32 -34 -29
-39 3 -6 -3 -16 -13 -23 -27 -20 -51 -59 -45 -74 3 -8 0 -14 -6 -14 -6 0 -11
-13 -11 -30 0 -16 -4 -30 -10 -30 -6 0 -10 -60 -10 -159 0 -96 4 -162 10 -166
6 -3 10 -26 10 -50 0 -24 5 -47 10 -50 6 -4 10 -22 8 -40 -1 -18 4 -40 11 -49
7 -9 11 -25 8 -36 -3 -13 0 -20 9 -20 10 0 13 -8 9 -29 -3 -18 0 -35 9 -44 8
-7 13 -28 12 -46 -1 -20 3 -35 11 -38 8 -3 11 -15 8 -31 -2 -14 1 -32 7 -40 7
-8 13 -28 14 -44 2 -17 6 -34 11 -37 4 -3 8 -24 8 -46 -1 -22 4 -45 11 -52 15
-15 8 -100 -9 -117 -10 -10 -59 -14 -208 -14 -285 0 -267 1 -246 -19 16 -17
59 -18 587 -19 l570 0 0 38 c0 21 -4 38 -10 38 -5 0 -10 9 -10 19 0 11 -8 26
-19 33 -10 7 -17 21 -15 31 1 9 -4 24 -12 31 -13 14 -10 46 5 46 4 0 6 22 5
50 -1 27 3 53 9 59 8 6 12 40 11 88 0 43 3 81 9 84 13 9 12 200 -1 208 -5 3
-9 30 -8 60 1 30 -4 65 -12 79 -7 14 -11 30 -9 36 2 6 -2 23 -9 37 -7 15 -12
36 -9 47 2 11 -3 26 -10 32 -7 6 -12 20 -10 31 2 11 -2 22 -11 26 -8 3 -13 12
-10 20 3 8 0 24 -8 34 -8 11 -12 28 -9 38 2 10 -2 21 -9 24 -10 3 -14 17 -12
41 2 25 -1 36 -10 36 -9 0 -12 9 -8 25 2 15 0 25 -7 25 -6 0 -11 17 -11 39 0
22 -6 44 -15 51 -11 9 -12 17 -5 30 7 14 6 23 -6 35 -10 9 -14 26 -11 41 2 13
0 27 -5 30 -10 6 -31 52 -32 69 -1 6 -11 18 -24 29 -13 10 -21 23 -19 29 3 11
-28 42 -48 47 -5 1 -23 13 -38 26 -16 13 -33 22 -38 18 -5 -3 -18 1 -28 8 -13
10 -45 13 -100 11 -44 -1 -83 2 -86 7 -3 6 -21 10 -40 10 -19 0 -37 5 -40 10
-3 6 -22 10 -41 10 -19 0 -34 4 -34 9 0 5 -23 11 -51 13 -42 2 -54 -1 -72 -20z"/>
<path d="M883 2332 c-18 -3 -23 -10 -23 -33 0 -19 -4 -28 -11 -23 -7 4 -10 -3
-7 -18 1 -14 -3 -32 -9 -39 -6 -8 -11 -37 -10 -64 2 -39 6 -51 20 -53 14 -3
17 2 15 26 -1 17 4 37 11 46 7 9 11 22 8 30 -3 7 5 35 19 61 26 52 22 72 -13
67z"/>
<path d="M1005 2220 c-9 -10 -15 -25 -12 -33 2 -7 -1 -21 -9 -32 -12 -16 -12
-21 2 -36 14 -16 18 -16 31 -3 8 8 15 30 15 49 0 19 4 35 9 35 5 0 9 9 9 20 0
26 -22 26 -45 0z"/>
</g>
</svg>
